<svg id="Layer_1" data-name="Layer 1" xmlns="http://www.w3.org/2000/svg" width="445px" height="430px" viewBox="0 0 445 430"><defs><style>.cls-1,.cls-4,.cls-8{fill:#fff;}.cls-1{stroke:#a9a9a9;}.cls-1,.cls-2,.cls-3,.cls-4,.cls-5,.cls-8{stroke-miterlimit:10;}.cls-1,.cls-2,.cls-3,.cls-8{stroke-width:5px;}.cls-2{fill:none;}.cls-2,.cls-4,.cls-8{stroke:#c20d12;}.cls-3,.cls-5,.cls-7{fill:#c20d12;}.cls-3,.cls-5{stroke:#fff;}.cls-4,.cls-5{stroke-width:5.56px;}.cls-6{fill:#eaebeb;}</style></defs><title>Artboard 10</title><polyline class="cls-1" points="267.33 253.83 245.55 253.83 245.55 60.23 199.45 60.23 199.45 253.83 177.67 253.83"/><path class="cls-2" d="M142.16,44.89a30,30,0,1,0,30,30,30,30,0,1,1,30,30"/><polyline class="cls-2" points="121.72 33.68 142.1 44.89 130.9 65.27"/><polyline class="cls-2" points="221.72 115.63 202.27 104.94 212.97 85.48"/><polyline class="cls-1" points="420.21 253.83 313.42 253.83 313.42 23.93 267.33 23.93 267.33 253.83 177.67 253.83 177.67 96.53 131.58 96.53 131.58 253.83 24.79 253.83"/><circle class="cls-3" cx="24.79" cy="253.83" r="17.29"/><circle class="cls-3" cx="420.21" cy="253.83" r="17.29"/><path class="cls-4" d="M374,254.54a151.53,151.53,0,1,1-303.06,0"/><ellipse class="cls-4" cx="222.5" cy="254.54" rx="151.53" ry="30.81"/><path class="cls-5" d="M174.52,254.54a48,48,0,0,1,96,0"/><path class="cls-6" d="M149.32,156.76a12.84,12.84,0,0,0-4.69.91,24.48,24.48,0,0,0-47.47-8.07,18.34,18.34,0,0,0-29.41,11.66,11,11,0,1,0-4.17,21.25h85.74a12.88,12.88,0,0,0,0-25.75Z"/><path class="cls-7" d="M71.35,149.75a5.15,5.15,0,0,1,1.88.36,9.81,9.81,0,0,1,19-3.24,7.36,7.36,0,0,1,11.79,4.68,4.42,4.42,0,1,1,1.67,8.52H71.35a5.16,5.16,0,1,1,0-10.32Z"/><path class="cls-7" d="M353.85,58.49a7.34,7.34,0,0,0-2.7.53,14.13,14.13,0,0,0-27.4-4.66,10.59,10.59,0,0,0-17,6.73,6.37,6.37,0,1,0-2.41,12.26h49.49a7.43,7.43,0,0,0,0-14.86Z"/><path class="cls-8" d="M362.52,155.4a42.23,42.23,0,0,0,0-18.54l-9.47-.91a32.22,32.22,0,0,0-2.16-5.17l6.06-7.35a42.6,42.6,0,0,0-13.11-13.11l-7.34,6.06a34.26,34.26,0,0,0-5.18-2.16l-.9-9.46a42.23,42.23,0,0,0-18.54,0l-.91,9.46a34.58,34.58,0,0,0-5.17,2.16l-7.35-6.06a42.82,42.82,0,0,0-13.11,13.11l6.07,7.35a33.2,33.2,0,0,0-2.17,5.17l-9.46.91a42.23,42.23,0,0,0,0,18.54l9.46.9a33.72,33.72,0,0,0,2.17,5.18l-6.07,7.34a42.71,42.71,0,0,0,13.11,13.11l7.35-6.06A33.56,33.56,0,0,0,311,178l.91,9.47a42.63,42.63,0,0,0,18.54,0l.9-9.47a33.27,33.27,0,0,0,5.18-2.16l7.34,6.06A42.49,42.49,0,0,0,357,168.82l-6.06-7.34a32.71,32.71,0,0,0,2.16-5.18Z"/><path class="cls-7" d="M336,129.57a17.22,17.22,0,0,0-18.64,6.6,10.71,10.71,0,1,0-4,20.64,10.55,10.55,0,0,0,5.25-1.4,10.75,10.75,0,0,0,5.45-9.27h0a7.32,7.32,0,1,1,3.57,6.33h0v0l-.16-.06-.16-.08-.16,0a.37.37,0,0,0-.15,0,.39.39,0,0,0-.14,0h-.2l-.1,0a.72.72,0,0,0-.22,0s-.05,0-.07,0l-.22.08-.08.06a.6.6,0,0,0-.22.12l-.08.06c0,.06-.1.1-.15.16a.73.73,0,0,0-.1.13s-.06.08-.1.14h0a13.83,13.83,0,0,1-15.69,6.37,13.85,13.85,0,0,1-9.64-17,13.88,13.88,0,0,1,13.53-10.16h0a1.69,1.69,0,1,0,0-3.37,17.22,17.22,0,0,0-15.21,25.72,17.07,17.07,0,0,0,10.4,8.11,16.77,16.77,0,0,0,4.59.63,17.24,17.24,0,0,0,14-7.24,10.47,10.47,0,0,0,4,.79,10.7,10.7,0,1,0-10.71-10.75h0a7.35,7.35,0,0,1-3.73,6.35,7.26,7.26,0,0,1-5.58.69,7.34,7.34,0,1,1,5.72-13.37h0s0,0,0,0l.14.06c.06,0,.1.06.16.08l.14,0a.49.49,0,0,0,.19,0,.25.25,0,0,0,.12,0h.2l.14,0,.17,0a.37.37,0,0,0,.14,0l.18-.06a.75.75,0,0,1,.12-.07l.16-.1s.06-.06.09-.1a.87.87,0,0,0,.14-.12.85.85,0,0,0,.1-.14.36.36,0,0,0,.1-.14h0A13.85,13.85,0,1,1,331.25,160h0a1.66,1.66,0,0,0-1.68,1.65,1.69,1.69,0,0,0,1.66,1.72h.23a17.23,17.23,0,0,0,4.6-33.83Z"/></svg>